HIERARCHY
ROOT Hips
{
	OFFSET 0.000000 0.000000 0.000000 
	CHANNELS 6 Xposition Yposition Zposition Zrotation Yrotation Xrotation
	JOINT LeftUpLeg
	{
		OFFSET 1.363060 -1.794630 0.839290 
		CHANNELS 3 Zrotation Yrotation Xrotation
		JOINT LeftLeg
		{
			OFFSET 2.448110 -6.726130 0.000000 
			CHANNELS 3 Zrotation Yrotation Xrotation
			JOINT LeftFoot
			{
				OFFSET 2.562200 -7.039590 0.000000 
				CHANNELS 3 Zrotation Yrotation Xrotation
				JOINT LeftToeBase
				{
					OFFSET 0.157640 -0.433110 2.322550 
					CHANNELS 3 Zrotation Yrotation Xrotation
					End Site
					{
						OFFSET 0.000000 0.000000 0.000000 
					}
				}
			}
		}
	}
	JOINT RightUpLeg
	{
		OFFSET -1.305520 -1.794630 0.839290 
		CHANNELS 3 Zrotation Yrotation Xrotation
		JOINT RightLeg
		{
			OFFSET -2.542530 -6.985550 0.000000 
			CHANNELS 3 Zrotation Yrotation Xrotation
			JOINT RightFoot
			{
				OFFSET -2.568260 -7.056230 0.000000 
				CHANNELS 3 Zrotation Yrotation Xrotation
				JOINT RightToeBase
				{
					OFFSET -0.164730 -0.452590 2.363150 
					CHANNELS 3 Zrotation Yrotation Xrotation
					End Site
					{
						OFFSET 0.000000 0.000000 0.000000 
					}
				}
			}
		}
	}
	JOINT Spine
	{
		OFFSET 0.028270 2.035590 -0.193380 
		CHANNELS 3 Zrotation Yrotation Xrotation
		JOINT Spine1
		{
			OFFSET 0.056720 2.048850 -0.042750 
			CHANNELS 3 Zrotation Yrotation Xrotation
			JOINT Neck1
			{
				OFFSET -0.054170 1.746240 0.172020 
				CHANNELS 3 Zrotation Yrotation Xrotation
				JOINT Head
				{
					OFFSET 0.104070 1.761360 -0.123970 
					CHANNELS 3 Zrotation Yrotation Xrotation
					End Site
					{
						OFFSET 0.000000 0.000000 0.000000 
					}
				}
			}
			JOINT LeftArm
			{
				OFFSET 3.362410 1.200890 -0.311210 
				CHANNELS 3 Zrotation Yrotation Xrotation
				JOINT LeftForeArm
				{
					OFFSET 4.983000 -0.000000 -0.000000 
					CHANNELS 3 Zrotation Yrotation Xrotation
					JOINT LeftHand
					{
						OFFSET 3.483560 -0.000000 -0.000000 
						CHANNELS 3 Zrotation Yrotation Xrotation
						JOINT LeftHandIndex1
						{
							OFFSET 0.715260 -0.000000 -0.000000 
							CHANNELS 3 Zrotation Yrotation Xrotation
							End Site
							{
								OFFSET 0.000000 0.000000 0.000000 
							}
						}
					}
				}
			}
			JOINT RightArm
			{
				OFFSET -3.136600 1.374050 -0.404650 
				CHANNELS 3 Zrotation Yrotation Xrotation
				JOINT RightForeArm
				{
					OFFSET -5.241900 -0.000000 -0.000000 
					CHANNELS 3 Zrotation Yrotation Xrotation
					JOINT RightHand
					{
						OFFSET -3.444170 -0.000000 -0.000000 
						CHANNELS 3 Zrotation Yrotation Xrotation
						JOINT RightHandIndex1
						{
							OFFSET -0.622530 -0.000000 -0.000000 
							CHANNELS 3 Zrotation Yrotation Xrotation
							End Site
							{
								OFFSET 0.000000 0.000000 0.000000 
							}
						}
					}
				}
			}
		}
	}
}
MOTION
Frames: 10
Frame Time: 0.041667
3.065812 18.151933 -4.398225 -174.966876 -2.180078 -158.973027 -4.210262 -0.820722 -54.377696 0.634712 13.712441 32.158085 4.601746 -4.327905 21.420758 0.307300 -3.563800 -9.852500 15.108655 2.681632 4.414713 -3.951060 -11.883777 29.358375 -0.008700 -32.253816 47.161687 -0.229800 3.085600 -8.517200 -0.000374 4.637633 -4.726589 -2.900106 2.885667 -6.022210 5.239736 -6.686282 -1.320930 0.898000 -3.492800 5.097700 -81.211530 51.308625 33.271025 111.962378 -60.724237 -82.973864 -0.218911 -0.259521 -12.627779 -7.125000 0.000000 0.000000 77.131340 5.638103 34.707624 -141.910227 41.974183 -107.298934 1.662028 -0.718163 -10.775198 7.125000 0.000000 0.000000 
3.095160 18.138563 -5.099650 -175.032271 -2.848982 -159.471235 -4.828372 -0.433932 -53.632315 0.555618 13.490535 31.990090 4.651777 -4.365970 22.156962 0.333700 -3.712600 -10.269600 16.212506 1.453098 3.306991 -5.881501 -13.312788 34.714350 0.818032 -33.890219 45.642158 -0.150400 2.498700 -6.886100 0.027718 4.402076 -4.676939 -2.610049 2.732969 -6.001496 5.387189 -6.724323 -1.489884 0.968500 -3.510000 4.980100 -82.671663 49.384925 32.645654 111.420781 -60.547399 -82.581706 -0.258010 -0.247344 -12.823842 -7.125000 0.000000 0.000000 78.170360 4.312495 34.540718 -139.399405 44.168573 -105.557938 1.632403 -0.682741 -10.514129 7.125000 0.000000 0.000000 
3.124074 18.118019 -5.802488 -175.225610 -3.453776 -159.989326 -5.480897 -0.128848 -52.805727 0.589353 13.411417 32.296278 4.755530 -4.672393 22.868167 0.427700 -4.197300 -11.632400 17.076816 0.381005 2.000870 -7.822194 -14.578009 40.296411 1.341165 -34.608544 44.399969 -0.081400 1.840300 -5.064600 0.047904 4.151248 -4.622446 -2.266602 2.576510 -5.985885 5.521376 -6.751805 -1.648657 1.025000 -3.524600 4.867300 -83.910380 47.175323 32.364186 110.624323 -60.403292 -81.993584 -0.298766 -0.242718 -13.294651 -7.125000 0.000000 0.000000 79.262786 2.910705 34.262669 -136.419305 46.488648 -103.447236 1.612526 -0.629956 -10.457416 7.125000 0.000000 0.000000 
3.151465 18.093562 -6.506956 -175.558934 -4.006610 -160.523267 -6.152216 0.057433 -51.885506 0.723245 13.457530 33.009234 4.898089 -5.209372 23.418391 0.406900 -4.094900 -11.343800 17.630378 -0.561763 0.503869 -9.707264 -15.662160 46.000510 1.578432 -34.319738 43.397549 -0.036100 1.227100 -3.373900 0.056891 3.875270 -4.566741 -1.896745 2.410851 -5.997667 5.643330 -6.767032 -1.791225 1.065000 -3.534700 4.767600 -84.925940 44.721877 32.388662 109.556706 -60.291641 -81.199591 -0.340393 -0.245620 -13.908202 -7.125000 0.000000 0.000000 80.399447 1.503609 33.869047 -132.845853 48.906035 -100.873579 1.601800 -0.557557 -10.573528 7.125000 0.000000 0.000000 
3.176575 18.064540 -7.211642 -176.076708 -4.518395 -161.057598 -6.922426 0.136445 -50.926246 0.967081 13.624215 34.125023 5.041572 -5.893653 23.676111 0.315100 -3.608600 -9.978000 17.793188 -1.421214 -1.198524 -11.509012 -16.570260 51.775813 1.613593 -33.074458 42.491171 -0.016400 0.828000 -2.275500 0.051130 3.556544 -4.512271 -1.511144 2.228154 -6.051766 5.757120 -6.768669 -1.927139 1.090700 -3.539700 4.671300 -85.743253 42.062349 32.668476 108.197480 -60.208624 -80.182881 -0.383664 -0.255893 -14.497843 -7.125000 0.000000 0.000000 81.579520 0.154454 33.370261 -128.511055 51.378252 -97.711575 1.599640 -0.464127 -10.834458 7.125000 0.000000 0.000000 
3.198531 18.042692 -7.917632 -176.814483 -4.987806 -161.539158 -7.824322 0.094893 -49.927872 1.320455 13.888026 35.576189 5.154913 -6.616676 23.445264 0.168800 -2.646800 -7.297000 17.481152 -2.231704 -3.136338 -13.195487 -17.305157 57.505255 1.514524 -31.024093 41.589288 -0.013300 0.743700 -2.044000 0.027734 3.183413 -4.464980 -1.105708 2.024702 -6.160449 5.877909 -6.758147 -2.061200 1.113800 -3.538200 4.573000 -86.402067 39.226931 33.147707 106.497482 -60.148308 -78.904426 -0.428463 -0.269922 -14.902151 -7.125000 0.000000 0.000000 82.806428 -1.099072 32.775562 -123.210264 53.821448 -93.813646 1.607264 -0.347891 -11.168942 7.125000 0.000000 0.000000 
3.217336 18.003126 -8.616122 -177.766197 -5.444310 -161.962508 -8.840958 -0.144677 -48.956021 1.803280 14.250372 37.351813 5.196185 -7.236918 22.610660 0.036600 -1.234300 -3.393800 16.729801 -3.034040 -5.311794 -14.784693 -17.890666 63.210188 1.386978 -28.391666 40.480627 -0.020200 0.917000 -2.520600 -0.009509 2.740274 -4.426778 -0.670980 1.791681 -6.326607 6.022213 -6.733698 -2.198829 1.153300 -3.527500 4.467100 -86.951765 36.233165 33.778786 104.418646 -60.094275 -77.328277 -0.476056 -0.286683 -15.042365 -7.125000 0.000000 0.000000 84.064022 -2.251997 32.131237 -116.735682 56.074902 -89.035677 1.631635 -0.205241 -11.534272 7.125000 0.000000 0.000000 
3.232119 17.962473 -9.309394 -178.866592 -5.914566 -162.279410 -9.904352 -0.581597 -47.934688 2.384861 14.657478 39.301153 5.182362 -7.706343 21.142189 0.004500 0.435300 1.196000 15.602221 -3.836600 -7.756706 -16.266943 -18.339849 68.771159 1.244296 -25.438389 39.178482 -0.035900 1.223300 -3.363600 -0.056800 2.232713 -4.402593 -0.221761 1.531920 -6.544024 6.196966 -6.705213 -2.338391 1.220000 -3.510800 4.356700 -87.399359 33.082243 34.554447 101.960753 -60.018559 -75.444836 -0.526404 -0.308282 -14.951274 -7.125000 0.000000 0.000000 85.333712 -3.338647 31.518286 -108.949850 57.864784 -83.278342 1.682074 -0.036126 -11.911309 7.125000 0.000000 0.000000 
3.242445 17.920950 -9.995492 179.981457 -6.405730 -162.462609 -10.931914 -1.188292 -46.848461 3.035655 15.071167 41.307455 5.137763 -8.016013 19.085385 0.100700 2.046100 5.633200 14.232630 -4.624137 -10.486710 -17.649013 -18.673212 74.126287 1.081203 -22.353868 37.723165 -0.063900 1.631000 -4.487000 -0.108643 1.687383 -4.395691 0.219988 1.258235 -6.805524 6.400374 -6.683080 -2.468889 1.317700 -3.491700 4.253100 -87.741102 29.777049 35.481279 99.181366 -59.885916 -73.285600 -0.578352 -0.330374 -14.753306 -7.125000 0.000000 0.000000 86.589425 -4.434857 31.076822 -99.993220 58.803371 -76.563284 1.760992 0.148207 -12.273799 7.125000 0.000000 0.000000 
3.247989 17.879754 -10.673765 178.880102 -6.921046 -162.508707 -11.835445 -1.906612 -45.650517 3.691117 15.436921 43.186288 5.097092 -8.188904 16.614502 0.268900 3.335800 9.215100 12.766373 -5.385614 -13.495337 -18.926484 -18.909484 79.175377 0.886166 -19.289248 36.195268 -0.103800 2.078000 -5.721300 -0.160845 1.134522 -4.408019 0.616173 0.985056 -7.107646 6.622027 -6.681393 -2.578307 1.440700 -3.477000 4.169200 -87.975865 26.339278 36.550250 96.229590 -59.666873 -70.952336 -0.628671 -0.351690 -14.614585 -7.125000 0.000000 0.000000 87.808522 -5.629491 30.896509 -90.525462 58.609874 -69.114793 1.852034 0.314707 -12.664543 7.125000 0.000000 0.000000 
